<?xml version="1.0" standalone="no"?>
<!DOCTYPE svg PUBLIC "-//W3C//DTD SVG 20010904//EN"
 "http://www.w3.org/TR/2001/REC-SVG-20010904/DTD/svg10.dtd">
<svg version="1.0" xmlns="http://www.w3.org/2000/svg"
 width="400.000000pt" height="300.000000pt" viewBox="0 0 400.000000 300.000000"
 preserveAspectRatio="xMidYMid meet">

<g transform="translate(0.000000,300.000000) scale(0.100000,-0.100000)"
fill="#ffffff" stroke="none">
<path d="M510 2227 c0 -34 67 -144 122 -198 72 -72 205 -140 323 -165 44 -10
81 -18 83 -20 2 -1 -23 -29 -55 -61 -180 -180 -212 -460 -79 -688 15 -25 55
-73 88 -105 131 -128 316 -184 499 -150 86 16 214 84 283 151 33 32 61 58 62
56 1 -1 13 -25 27 -53 14 -27 50 -89 80 -137 l55 -88 55 88 c30 49 67 113 82
143 15 30 28 56 30 58 1 1 31 -26 66 -60 227 -222 571 -223 793 -2 220 221
220 569 0 790 l-61 62 81 16 c116 23 250 91 323 164 58 58 105 132 117 185 l7
28 -52 -26 c-112 -57 -313 -85 -594 -83 -105 1 -146 -3 -215 -21 -203 -54
-382 -189 -467 -355 l-20 -39 -142 0 -143 0 -36 64 c-55 99 -169 205 -277 261
-134 69 -231 91 -390 90 -281 -2 -482 26 -594 83 -37 18 -51 22 -51 12z m1004
-536 c63 -28 131 -94 163 -160 24 -48 28 -68 28 -141 0 -74 -4 -92 -29 -143
-101 -199 -368 -245 -524 -89 -21 21 -52 65 -67 97 -55 111 -33 258 53 356 32
37 115 87 166 100 48 13 161 2 210 -20z m1261 -10 c200 -99 243 -363 85 -521
-216 -216 -592 -37 -556 266 27 230 263 357 471 255z m-717 -198 c41 -25 53
-71 42 -158 -5 -42 -15 -96 -21 -118 -16 -60 -69 -187 -79 -187 -12 0 -58 104
-80 181 -10 38 -22 101 -26 139 -9 91 5 126 60 151 42 19 64 17 104 -8z"/>
</g>
</svg>
